<svg id="visual" viewBox="0 0 900 600" width="900" height="600" xmlns="http://www.w3.org/2000/svg" xmlns:xlink="http://www.w3.org/1999/xlink" version="1.1"><g stroke-width="1" stroke-linejoin="bevel"><path d="M389.5 300L390.5 285L336.6 291Z" fill="#134255" stroke="#134255"></path><path d="M390.5 285L362.6 263L336.6 291Z" fill="#1e7b8d" stroke="#1e7b8d"></path><path d="M390.5 285L382.6 253L362.6 263Z" fill="#175e71" stroke="#175e71"></path><path d="M317.7 250L326.7 262L362.6 263Z" fill="#134255" stroke="#134255"></path><path d="M362.6 263L326.7 262L336.6 291Z" fill="#155063" stroke="#155063"></path><path d="M373.6 216L317.7 250L362.6 263Z" fill="#103546" stroke="#103546"></path><path d="M282.6 328L303.6 347L336.6 291Z" fill="#103546" stroke="#103546"></path><path d="M413.5 214L373.6 216L382.6 253Z" fill="#238b9a" stroke="#238b9a"></path><path d="M382.6 253L373.6 216L362.6 263Z" fill="#0c2838" stroke="#0c2838"></path><path d="M336.6 291L401.5 358L389.5 300Z" fill="#134255" stroke="#134255"></path><path d="M519.5 258L455.5 215L390.5 285Z" fill="#1a6d7f" stroke="#1a6d7f"></path><path d="M277.6 308L336.6 291L326.7 262Z" fill="#103546" stroke="#103546"></path><path d="M336.6 291L362.6 387L401.5 358Z" fill="#0c2838" stroke="#0c2838"></path><path d="M317.7 250L277.6 308L326.7 262Z" fill="#155063" stroke="#155063"></path><path d="M277.6 308L282.6 328L336.6 291Z" fill="#0c2838" stroke="#0c2838"></path><path d="M455.5 215L413.5 214L390.5 285Z" fill="#081c2a" stroke="#081c2a"></path><path d="M390.5 285L413.5 214L382.6 253Z" fill="#238b9a" stroke="#238b9a"></path><path d="M303.6 347L362.6 387L336.6 291Z" fill="#103546" stroke="#103546"></path><path d="M395.5 189L357.6 191L373.6 216Z" fill="#1e7b8d" stroke="#1e7b8d"></path><path d="M373.6 216L357.6 191L317.7 250Z" fill="#134255" stroke="#134255"></path><path d="M317.7 250L255.7 225L277.6 308Z" fill="#155063" stroke="#155063"></path><path d="M413.5 214L395.5 189L373.6 216Z" fill="#0c2838" stroke="#0c2838"></path><path d="M519.5 258L390.5 285L389.5 300Z" fill="#1a6d7f" stroke="#1a6d7f"></path><path d="M413.5 214L455.5 203L395.5 189Z" fill="#1a6d7f" stroke="#1a6d7f"></path><path d="M317.7 154L255.7 225L317.7 250Z" fill="#081c2a" stroke="#081c2a"></path><path d="M277.6 308L235.8 317L282.6 328Z" fill="#238b9a" stroke="#238b9a"></path><path d="M455.5 215L455.5 203L413.5 214Z" fill="#081c2a" stroke="#081c2a"></path><path d="M212.8 302L235.8 317L203.8 273Z" fill="#1a6d7f" stroke="#1a6d7f"></path><path d="M237.7 357L289.6 406L303.6 347Z" fill="#1e7b8d" stroke="#1e7b8d"></path><path d="M303.6 347L289.6 406L362.6 387Z" fill="#00101c" stroke="#00101c"></path><path d="M237.7 357L303.6 347L282.6 328Z" fill="#103546" stroke="#103546"></path><path d="M235.8 317L237.7 357L282.6 328Z" fill="#155063" stroke="#155063"></path><path d="M356.6 137L317.7 154L357.6 191Z" fill="#238b9a" stroke="#238b9a"></path><path d="M357.6 191L317.7 154L317.7 250Z" fill="#175e71" stroke="#175e71"></path><path d="M356.6 137L357.6 191L370.6 133Z" fill="#103546" stroke="#103546"></path><path d="M235.8 317L232.7 358L237.7 357Z" fill="#238b9a" stroke="#238b9a"></path><path d="M237.7 357L232.7 358L289.6 406Z" fill="#299aa6" stroke="#299aa6"></path><path d="M240.7 163L238.8 211L255.7 225Z" fill="#081c2a" stroke="#081c2a"></path><path d="M203.8 273L235.8 317L277.6 308Z" fill="#103546" stroke="#103546"></path><path d="M235.8 317L210.8 328L232.7 358Z" fill="#0c2838" stroke="#0c2838"></path><path d="M203.8 273L277.6 308L255.7 225Z" fill="#103546" stroke="#103546"></path><path d="M370.6 133L357.6 191L395.5 189Z" fill="#1a6d7f" stroke="#1a6d7f"></path><path d="M317.6 101L293.6 151L317.7 154Z" fill="#1a6d7f" stroke="#1a6d7f"></path><path d="M317.7 154L293.6 151L255.7 225Z" fill="#1e7b8d" stroke="#1e7b8d"></path><path d="M212.8 302L210.8 328L235.8 317Z" fill="#134255" stroke="#134255"></path><path d="M422.5 108L370.6 133L395.5 189Z" fill="#175e71" stroke="#175e71"></path><path d="M356.6 137L317.6 101L317.7 154Z" fill="#103546" stroke="#103546"></path><path d="M526.5 331L519.5 258L389.5 300Z" fill="#238b9a" stroke="#238b9a"></path><path d="M455.5 215L521.4 255L455.5 203Z" fill="#081c2a" stroke="#081c2a"></path><path d="M453.5 438L473.5 408L401.5 358Z" fill="#081c2a" stroke="#081c2a"></path><path d="M401.5 358L526.5 331L389.5 300Z" fill="#00101c" stroke="#00101c"></path><path d="M453.5 438L401.5 358L410.6 461Z" fill="#103546" stroke="#103546"></path><path d="M238.8 211L203.8 273L255.7 225Z" fill="#175e71" stroke="#175e71"></path><path d="M212.8 302L158.9 334L210.8 328Z" fill="#0c2838" stroke="#0c2838"></path><path d="M547.4 256L521.4 255L519.5 258Z" fill="#00101c" stroke="#00101c"></path><path d="M519.5 258L521.4 255L455.5 215Z" fill="#103546" stroke="#103546"></path><path d="M455.5 203L422.5 108L395.5 189Z" fill="#00101c" stroke="#00101c"></path><path d="M289.6 406L354.6 457L362.6 387Z" fill="#134255" stroke="#134255"></path><path d="M473.5 408L526.5 331L401.5 358Z" fill="#00101c" stroke="#00101c"></path><path d="M410.6 461L401.5 358L362.6 387Z" fill="#1a6d7f" stroke="#1a6d7f"></path><path d="M473.5 408L517.5 380L526.5 331Z" fill="#238b9a" stroke="#238b9a"></path><path d="M354.6 457L410.6 461L362.6 387Z" fill="#238b9a" stroke="#238b9a"></path><path d="M209.8 121L240.7 163L293.6 151Z" fill="#103546" stroke="#103546"></path><path d="M293.6 151L240.7 163L255.7 225Z" fill="#155063" stroke="#155063"></path><path d="M238.8 211L147.8 179L203.8 273Z" fill="#1e7b8d" stroke="#1e7b8d"></path><path d="M511.5 423L517.5 380L473.5 408Z" fill="#0c2838" stroke="#0c2838"></path><path d="M538.4 333L541.4 301L526.5 331Z" fill="#103546" stroke="#103546"></path><path d="M526.5 331L541.4 301L519.5 258Z" fill="#103546" stroke="#103546"></path><path d="M517.5 380L538.4 333L526.5 331Z" fill="#0c2838" stroke="#0c2838"></path><path d="M633.3 317L545.4 291L541.4 301Z" fill="#238b9a" stroke="#238b9a"></path><path d="M541.4 301L545.4 291L519.5 258Z" fill="#299aa6" stroke="#299aa6"></path><path d="M289.6 406L338.6 473L354.6 457Z" fill="#00101c" stroke="#00101c"></path><path d="M354.6 457L368.6 517L410.6 461Z" fill="#081c2a" stroke="#081c2a"></path><path d="M322.7 488L338.6 473L289.6 406Z" fill="#238b9a" stroke="#238b9a"></path><path d="M583.4 192L485.5 150L521.4 255Z" fill="#103546" stroke="#103546"></path><path d="M521.4 255L485.5 150L455.5 203Z" fill="#00101c" stroke="#00101c"></path><path d="M545.4 291L547.4 256L519.5 258Z" fill="#238b9a" stroke="#238b9a"></path><path d="M485.5 150L422.5 108L455.5 203Z" fill="#1e7b8d" stroke="#1e7b8d"></path><path d="M321.6 94L317.6 101L356.6 137Z" fill="#299aa6" stroke="#299aa6"></path><path d="M321.6 94L356.6 137L370.6 133Z" fill="#155063" stroke="#155063"></path><path d="M453.5 438L511.5 423L473.5 408Z" fill="#103546" stroke="#103546"></path><path d="M517.5 380L576.4 411L538.4 333Z" fill="#1e7b8d" stroke="#1e7b8d"></path><path d="M522.4 475L511.5 423L453.5 438Z" fill="#238b9a" stroke="#238b9a"></path><path d="M583.4 192L490.4 135L485.5 150Z" fill="#081c2a" stroke="#081c2a"></path><path d="M485.5 150L490.4 135L422.5 108Z" fill="#155063" stroke="#155063"></path><path d="M422.5 108L321.6 94L370.6 133Z" fill="#134255" stroke="#134255"></path><path d="M209.8 121L186.8 151L240.7 163Z" fill="#175e71" stroke="#175e71"></path><path d="M253.7 515L322.7 488L289.6 406Z" fill="#238b9a" stroke="#238b9a"></path><path d="M368.6 517L448.5 487L410.6 461Z" fill="#0c2838" stroke="#0c2838"></path><path d="M203.8 455L289.6 406L232.7 358Z" fill="#134255" stroke="#134255"></path><path d="M203.8 273L158.9 334L212.8 302Z" fill="#175e71" stroke="#175e71"></path><path d="M210.8 328L159.8 398L232.7 358Z" fill="#00101c" stroke="#00101c"></path><path d="M91.9 320L158.9 334L203.8 273Z" fill="#00101c" stroke="#00101c"></path><path d="M545.4 291L570.4 244L547.4 256Z" fill="#1e7b8d" stroke="#1e7b8d"></path><path d="M547.4 256L583.4 192L521.4 255Z" fill="#299aa6" stroke="#299aa6"></path><path d="M633.3 317L570.4 244L545.4 291Z" fill="#299aa6" stroke="#299aa6"></path><path d="M633.3 317L541.4 301L538.4 333Z" fill="#103546" stroke="#103546"></path><path d="M368.6 517L354.6 457L338.6 473Z" fill="#155063" stroke="#155063"></path><path d="M410.6 461L448.5 487L453.5 438Z" fill="#238b9a" stroke="#238b9a"></path><path d="M496.5 63L469.5 94L490.4 135Z" fill="#299aa6" stroke="#299aa6"></path><path d="M490.4 135L469.5 94L422.5 108Z" fill="#155063" stroke="#155063"></path><path d="M422.5 108L435.5 63L321.6 94Z" fill="#1a6d7f" stroke="#1a6d7f"></path><path d="M209.8 121L293.6 151L215.8 88Z" fill="#1e7b8d" stroke="#1e7b8d"></path><path d="M240.7 163L186.8 151L238.8 211Z" fill="#0c2838" stroke="#0c2838"></path><path d="M322.7 488L368.6 517L338.6 473Z" fill="#1a6d7f" stroke="#1a6d7f"></path><path d="M279.7 62L293.6 151L317.6 101Z" fill="#238b9a" stroke="#238b9a"></path><path d="M159.8 398L203.8 455L232.7 358Z" fill="#299aa6" stroke="#299aa6"></path><path d="M322.7 488L325.6 600L368.6 517Z" fill="#00101c" stroke="#00101c"></path><path d="M158.9 334L159.8 398L210.8 328Z" fill="#00101c" stroke="#00101c"></path><path d="M368.6 517L454.5 509L448.5 487Z" fill="#134255" stroke="#134255"></path><path d="M448.5 487L522.4 475L453.5 438Z" fill="#0c2838" stroke="#0c2838"></path><path d="M469.5 94L435.5 63L422.5 108Z" fill="#0c2838" stroke="#0c2838"></path><path d="M321.6 94L279.7 62L317.6 101Z" fill="#1e7b8d" stroke="#1e7b8d"></path><path d="M172.8 462L213.7 478L203.8 455Z" fill="#299aa6" stroke="#299aa6"></path><path d="M203.8 455L213.7 478L289.6 406Z" fill="#134255" stroke="#134255"></path><path d="M570.4 244L583.4 192L547.4 256Z" fill="#175e71" stroke="#175e71"></path><path d="M469.5 94L496.5 63L435.5 63Z" fill="#238b9a" stroke="#238b9a"></path><path d="M454.5 509L522.4 475L448.5 487Z" fill="#0c2838" stroke="#0c2838"></path><path d="M511.5 423L576.4 411L517.5 380Z" fill="#081c2a" stroke="#081c2a"></path><path d="M661.2 185L650.3 171L583.4 192Z" fill="#0c2838" stroke="#0c2838"></path><path d="M522.4 475L549.4 448L511.5 423Z" fill="#00101c" stroke="#00101c"></path><path d="M161.8 146L147.8 179L186.8 151Z" fill="#299aa6" stroke="#299aa6"></path><path d="M186.8 151L147.8 179L238.8 211Z" fill="#103546" stroke="#103546"></path><path d="M135.8 434L154.8 447L159.8 398Z" fill="#1e7b8d" stroke="#1e7b8d"></path><path d="M287.6 16L279.7 62L321.6 94Z" fill="#1a6d7f" stroke="#1a6d7f"></path><path d="M549.4 448L576.4 411L511.5 423Z" fill="#00101c" stroke="#00101c"></path><path d="M181.8 119L161.8 146L186.8 151Z" fill="#081c2a" stroke="#081c2a"></path><path d="M181.8 119L186.8 151L209.8 121Z" fill="#175e71" stroke="#175e71"></path><path d="M215.8 88L207.8 96L209.8 121Z" fill="#134255" stroke="#134255"></path><path d="M213.7 478L253.7 515L289.6 406Z" fill="#175e71" stroke="#175e71"></path><path d="M207.8 96L181.8 119L209.8 121Z" fill="#175e71" stroke="#175e71"></path><path d="M279.7 62L215.8 88L293.6 151Z" fill="#0c2838" stroke="#0c2838"></path><path d="M72.9 153L106.8 152L54.9 130Z" fill="#0c2838" stroke="#0c2838"></path><path d="M154.8 447L172.8 462L203.8 455Z" fill="#1a6d7f" stroke="#1a6d7f"></path><path d="M213.7 478L253.6 540L253.7 515Z" fill="#081c2a" stroke="#081c2a"></path><path d="M113.9 366L159.8 398L158.9 334Z" fill="#103546" stroke="#103546"></path><path d="M159.8 398L154.8 447L203.8 455Z" fill="#134255" stroke="#134255"></path><path d="M101.8 345L113.9 366L158.9 334Z" fill="#103546" stroke="#103546"></path><path d="M575.4 82L496.5 63L490.4 135Z" fill="#1a6d7f" stroke="#1a6d7f"></path><path d="M359.6 0L287.6 16L321.6 94Z" fill="#175e71" stroke="#175e71"></path><path d="M631.3 390L619.3 364L576.4 411Z" fill="#155063" stroke="#155063"></path><path d="M576.4 411L619.3 364L538.4 333Z" fill="#00101c" stroke="#00101c"></path><path d="M161.8 146L132.9 159L147.8 179Z" fill="#0c2838" stroke="#0c2838"></path><path d="M91.9 320L101.8 345L158.9 334Z" fill="#1e7b8d" stroke="#1e7b8d"></path><path d="M106.8 152L132.9 159L161.8 146Z" fill="#1a6d7f" stroke="#1a6d7f"></path><path d="M106.8 152L161.8 146L181.8 119Z" fill="#00101c" stroke="#00101c"></path><path d="M109.9 198L203.8 273L147.8 179Z" fill="#1e7b8d" stroke="#1e7b8d"></path><path d="M113.9 366L135.8 434L159.8 398Z" fill="#081c2a" stroke="#081c2a"></path><path d="M454.5 509L534.5 497L522.4 475Z" fill="#175e71" stroke="#175e71"></path><path d="M522.4 475L574.4 474L549.4 448Z" fill="#299aa6" stroke="#299aa6"></path><path d="M549.4 448L594.4 448L576.4 411Z" fill="#1a6d7f" stroke="#1a6d7f"></path><path d="M70.9 397L135.8 434L113.9 366Z" fill="#1e7b8d" stroke="#1e7b8d"></path><path d="M154.8 447L153.8 508L172.8 462Z" fill="#1a6d7f" stroke="#1a6d7f"></path><path d="M132.9 159L109.9 198L147.8 179Z" fill="#175e71" stroke="#175e71"></path><path d="M619.3 364L633.3 317L538.4 333Z" fill="#175e71" stroke="#175e71"></path><path d="M153.8 508L213.7 478L172.8 462Z" fill="#299aa6" stroke="#299aa6"></path><path d="M153.8 508L253.6 540L213.7 478Z" fill="#175e71" stroke="#175e71"></path><path d="M253.7 515L253.6 540L322.7 488Z" fill="#134255" stroke="#134255"></path><path d="M368.6 517L390.5 591L454.5 509Z" fill="#081c2a" stroke="#081c2a"></path><path d="M561.4 600L556.4 507L534.5 497Z" fill="#1a6d7f" stroke="#1a6d7f"></path><path d="M67.9 248L91.9 320L203.8 273Z" fill="#175e71" stroke="#175e71"></path><path d="M58.9 361L70.9 397L113.9 366Z" fill="#103546" stroke="#103546"></path><path d="M574.4 474L594.4 448L549.4 448Z" fill="#081c2a" stroke="#081c2a"></path><path d="M619.3 364L645.3 365L633.3 317Z" fill="#00101c" stroke="#00101c"></path><path d="M534.5 497L574.4 474L522.4 475Z" fill="#175e71" stroke="#175e71"></path><path d="M359.6 0L321.6 94L435.5 63Z" fill="#299aa6" stroke="#299aa6"></path><path d="M279.7 62L255.7 0L215.8 88Z" fill="#1e7b8d" stroke="#1e7b8d"></path><path d="M106.8 152L106.8 0L54.9 130Z" fill="#1e7b8d" stroke="#1e7b8d"></path><path d="M621.4 448L631.3 390L576.4 411Z" fill="#175e71" stroke="#175e71"></path><path d="M55.9 266L78.9 323L91.9 320Z" fill="#155063" stroke="#155063"></path><path d="M91.9 320L78.9 323L101.8 345Z" fill="#081c2a" stroke="#081c2a"></path><path d="M639.4 131L583.4 106L583.4 192Z" fill="#299aa6" stroke="#299aa6"></path><path d="M583.4 192L583.4 106L490.4 135Z" fill="#155063" stroke="#155063"></path><path d="M574.4 474L621.4 448L594.4 448Z" fill="#155063" stroke="#155063"></path><path d="M594.4 448L621.4 448L576.4 411Z" fill="#238b9a" stroke="#238b9a"></path><path d="M534.5 497L574.4 488L574.4 474Z" fill="#0c2838" stroke="#0c2838"></path><path d="M475.5 600L534.5 497L454.5 509Z" fill="#134255" stroke="#134255"></path><path d="M534.5 497L556.4 507L574.4 488Z" fill="#1e7b8d" stroke="#1e7b8d"></path><path d="M456.5 0L359.6 0L435.5 63Z" fill="#175e71" stroke="#175e71"></path><path d="M631.3 390L645.3 365L619.3 364Z" fill="#238b9a" stroke="#238b9a"></path><path d="M672.3 242L583.4 192L570.4 244Z" fill="#1a6d7f" stroke="#1a6d7f"></path><path d="M132.9 159L106.8 152L109.9 198Z" fill="#134255" stroke="#134255"></path><path d="M109.9 198L67.9 248L203.8 273Z" fill="#238b9a" stroke="#238b9a"></path><path d="M162.8 0L207.8 96L215.8 88Z" fill="#299aa6" stroke="#299aa6"></path><path d="M583.4 106L575.4 82L490.4 135Z" fill="#0c2838" stroke="#0c2838"></path><path d="M465.4 0L456.5 0L435.5 63Z" fill="#175e71" stroke="#175e71"></path><path d="M359.6 0L299.6 0L287.6 16Z" fill="#0c2838" stroke="#0c2838"></path><path d="M287.6 16L255.7 0L279.7 62Z" fill="#081c2a" stroke="#081c2a"></path><path d="M74.9 183L67.9 248L109.9 198Z" fill="#134255" stroke="#134255"></path><path d="M325.6 600L390.5 591L368.6 517Z" fill="#1a6d7f" stroke="#1a6d7f"></path><path d="M574.4 488L621.4 448L574.4 474Z" fill="#155063" stroke="#155063"></path><path d="M698.2 390L700.2 362L645.3 365Z" fill="#103546" stroke="#103546"></path><path d="M597.3 533L621.4 448L574.4 488Z" fill="#175e71" stroke="#175e71"></path><path d="M104.9 486L153.8 508L154.8 447Z" fill="#238b9a" stroke="#238b9a"></path><path d="M253.6 540L325.6 600L322.7 488Z" fill="#175e71" stroke="#175e71"></path><path d="M100.8 475L154.8 447L135.8 434Z" fill="#1e7b8d" stroke="#1e7b8d"></path><path d="M465.4 0L435.5 63L496.5 63Z" fill="#299aa6" stroke="#299aa6"></path><path d="M518.5 0L465.4 0L496.5 63Z" fill="#155063" stroke="#155063"></path><path d="M106.8 152L74.9 183L109.9 198Z" fill="#134255" stroke="#134255"></path><path d="M42.9 265L55.9 266L67.9 248Z" fill="#1e7b8d" stroke="#1e7b8d"></path><path d="M67.9 248L55.9 266L91.9 320Z" fill="#155063" stroke="#155063"></path><path d="M299.6 0L255.7 0L287.6 16Z" fill="#1a6d7f" stroke="#1a6d7f"></path><path d="M106.8 152L72.9 153L74.9 183Z" fill="#238b9a" stroke="#238b9a"></path><path d="M583.4 106L626.4 93L575.4 82Z" fill="#00101c" stroke="#00101c"></path><path d="M672.3 242L570.4 244L633.3 317Z" fill="#299aa6" stroke="#299aa6"></path><path d="M280.6 600L325.6 600L253.6 540Z" fill="#155063" stroke="#155063"></path><path d="M58.9 361L101.8 345L78.9 323Z" fill="#0c2838" stroke="#0c2838"></path><path d="M58.9 361L113.9 366L101.8 345Z" fill="#0c2838" stroke="#0c2838"></path><path d="M686.2 294L672.3 242L633.3 317Z" fill="#1e7b8d" stroke="#1e7b8d"></path><path d="M0 357L58.9 361L78.9 323Z" fill="#155063" stroke="#155063"></path><path d="M327.6 611L416.5 600L390.5 591Z" fill="#134255" stroke="#134255"></path><path d="M390.5 591L416.5 600L454.5 509Z" fill="#134255" stroke="#134255"></path><path d="M672.3 242L661.2 185L583.4 192Z" fill="#00101c" stroke="#00101c"></path><path d="M689.3 121L639.4 131L650.3 171Z" fill="#103546" stroke="#103546"></path><path d="M650.3 171L639.4 131L583.4 192Z" fill="#0c2838" stroke="#0c2838"></path><path d="M265.7 600L280.6 600L253.6 540Z" fill="#081c2a" stroke="#081c2a"></path><path d="M70.9 397L100.8 475L135.8 434Z" fill="#238b9a" stroke="#238b9a"></path><path d="M226.8 600L265.7 600L253.6 540Z" fill="#1e7b8d" stroke="#1e7b8d"></path><path d="M106.8 152L181.8 119L106.8 0Z" fill="#134255" stroke="#134255"></path><path d="M17.9 232L42.9 265L67.9 248Z" fill="#081c2a" stroke="#081c2a"></path><path d="M17.9 232L67.9 248L74.9 183Z" fill="#299aa6" stroke="#299aa6"></path><path d="M55.9 266L42.9 265L78.9 323Z" fill="#00101c" stroke="#00101c"></path><path d="M280.6 600L327.6 611L325.6 600Z" fill="#00101c" stroke="#00101c"></path><path d="M325.6 600L327.6 611L390.5 591Z" fill="#299aa6" stroke="#299aa6"></path><path d="M700.2 362L633.3 317L645.3 365Z" fill="#134255" stroke="#134255"></path><path d="M700.2 362L686.2 294L633.3 317Z" fill="#00101c" stroke="#00101c"></path><path d="M672.3 242L677.2 180L661.2 185Z" fill="#175e71" stroke="#175e71"></path><path d="M65.9 523L104.9 486L100.8 475Z" fill="#134255" stroke="#134255"></path><path d="M100.8 475L104.9 486L154.8 447Z" fill="#1e7b8d" stroke="#1e7b8d"></path><path d="M226.8 600L253.6 540L153.8 508Z" fill="#175e71" stroke="#175e71"></path><path d="M280.6 600L265.7 600L327.6 611Z" fill="#238b9a" stroke="#238b9a"></path><path d="M327.6 611L465.4 600L416.5 600Z" fill="#175e71" stroke="#175e71"></path><path d="M416.5 600L465.4 600L454.5 509Z" fill="#00101c" stroke="#00101c"></path><path d="M556.4 507L585.4 532L574.4 488Z" fill="#103546" stroke="#103546"></path><path d="M561.4 600L585.4 532L556.4 507Z" fill="#134255" stroke="#134255"></path><path d="M575.4 82L562.4 29L496.5 63Z" fill="#1a6d7f" stroke="#1a6d7f"></path><path d="M626.4 93L562.4 29L575.4 82Z" fill="#1e7b8d" stroke="#1e7b8d"></path><path d="M688.2 116L626.4 93L639.4 131Z" fill="#00101c" stroke="#00101c"></path><path d="M639.4 131L626.4 93L583.4 106Z" fill="#134255" stroke="#134255"></path><path d="M465.4 600L475.5 600L454.5 509Z" fill="#134255" stroke="#134255"></path><path d="M327.6 611L475.5 600L465.4 600Z" fill="#175e71" stroke="#175e71"></path><path d="M562.4 29L518.5 0L496.5 63Z" fill="#081c2a" stroke="#081c2a"></path><path d="M730.2 251L677.2 180L672.3 242Z" fill="#175e71" stroke="#175e71"></path><path d="M661.2 185L677.2 180L650.3 171Z" fill="#103546" stroke="#103546"></path><path d="M561.4 600L597.3 533L585.4 532Z" fill="#238b9a" stroke="#238b9a"></path><path d="M585.4 532L597.3 533L574.4 488Z" fill="#1a6d7f" stroke="#1a6d7f"></path><path d="M698.2 390L645.3 365L631.3 390Z" fill="#1e7b8d" stroke="#1e7b8d"></path><path d="M135.8 600L226.8 600L153.8 508Z" fill="#299aa6" stroke="#299aa6"></path><path d="M265.7 600L226.8 600L327.6 611Z" fill="#081c2a" stroke="#081c2a"></path><path d="M698.2 390L631.3 390L694.2 426Z" fill="#299aa6" stroke="#299aa6"></path><path d="M698.3 125L689.3 121L677.2 180Z" fill="#238b9a" stroke="#238b9a"></path><path d="M587.3 -4L554.4 0L562.4 29Z" fill="#081c2a" stroke="#081c2a"></path><path d="M562.4 29L554.4 0L518.5 0Z" fill="#299aa6" stroke="#299aa6"></path><path d="M162.8 0L181.8 119L207.8 96Z" fill="#155063" stroke="#155063"></path><path d="M72.9 153L0 139L74.9 183Z" fill="#299aa6" stroke="#299aa6"></path><path d="M694.2 426L631.3 390L621.4 448Z" fill="#155063" stroke="#155063"></path><path d="M0 139L17.9 232L74.9 183Z" fill="#299aa6" stroke="#299aa6"></path><path d="M42.9 265L0 284L78.9 323Z" fill="#134255" stroke="#134255"></path><path d="M255.7 0L162.8 0L215.8 88Z" fill="#299aa6" stroke="#299aa6"></path><path d="M686.2 488L694.2 426L621.4 448Z" fill="#081c2a" stroke="#081c2a"></path><path d="M0 260L0 284L42.9 265Z" fill="#1a6d7f" stroke="#1a6d7f"></path><path d="M58.9 361L0 385L70.9 397Z" fill="#175e71" stroke="#175e71"></path><path d="M0 465L65.9 523L100.8 475Z" fill="#1e7b8d" stroke="#1e7b8d"></path><path d="M0 139L0 260L17.9 232Z" fill="#238b9a" stroke="#238b9a"></path><path d="M17.9 232L0 260L42.9 265Z" fill="#081c2a" stroke="#081c2a"></path><path d="M475.5 600L561.4 600L534.5 497Z" fill="#103546" stroke="#103546"></path><path d="M597.3 533L677.2 499L621.4 448Z" fill="#0c2838" stroke="#0c2838"></path><path d="M327.6 611L561.4 600L475.5 600Z" fill="#0c2838" stroke="#0c2838"></path><path d="M677.2 180L689.3 121L650.3 171Z" fill="#175e71" stroke="#175e71"></path><path d="M641.3 0L587.3 -4L562.4 29Z" fill="#1e7b8d" stroke="#1e7b8d"></path><path d="M730.2 251L672.3 242L686.2 294Z" fill="#299aa6" stroke="#299aa6"></path><path d="M162.8 0L138.9 0L181.8 119Z" fill="#081c2a" stroke="#081c2a"></path><path d="M689.3 121L688.2 116L639.4 131Z" fill="#081c2a" stroke="#081c2a"></path><path d="M748.2 299L686.2 294L700.2 362Z" fill="#1e7b8d" stroke="#1e7b8d"></path><path d="M748.2 299L730.2 251L686.2 294Z" fill="#134255" stroke="#134255"></path><path d="M689.3 121L698.3 125L688.2 116Z" fill="#0c2838" stroke="#0c2838"></path><path d="M748.2 299L700.2 362L749.2 399Z" fill="#081c2a" stroke="#081c2a"></path><path d="M641.3 0L562.4 29L626.4 93Z" fill="#175e71" stroke="#175e71"></path><path d="M554.4 0L587.3 -4L518.5 0Z" fill="#155063" stroke="#155063"></path><path d="M518.5 0L587.3 -4L465.4 0Z" fill="#00101c" stroke="#00101c"></path><path d="M465.4 0L587.3 -4L456.5 0Z" fill="#175e71" stroke="#175e71"></path><path d="M456.5 0L587.3 -4L359.6 0Z" fill="#103546" stroke="#103546"></path><path d="M359.6 0L67.9 -12L299.6 0Z" fill="#134255" stroke="#134255"></path><path d="M299.6 0L67.9 -12L255.7 0Z" fill="#0c2838" stroke="#0c2838"></path><path d="M255.7 0L67.9 -12L162.8 0Z" fill="#175e71" stroke="#175e71"></path><path d="M162.8 0L67.9 -12L138.9 0Z" fill="#155063" stroke="#155063"></path><path d="M0 284L0 357L78.9 323Z" fill="#299aa6" stroke="#299aa6"></path><path d="M746.2 234L698.3 125L677.2 180Z" fill="#134255" stroke="#134255"></path><path d="M688.2 116L691.2 48L626.4 93Z" fill="#1e7b8d" stroke="#1e7b8d"></path><path d="M0 357L0 385L58.9 361Z" fill="#175e71" stroke="#175e71"></path><path d="M649.2 546L677.2 499L597.3 533Z" fill="#1a6d7f" stroke="#1a6d7f"></path><path d="M104.9 486L120.8 580L153.8 508Z" fill="#299aa6" stroke="#299aa6"></path><path d="M65.9 523L120.8 580L104.9 486Z" fill="#155063" stroke="#155063"></path><path d="M0 448L100.8 475L70.9 397Z" fill="#00101c" stroke="#00101c"></path><path d="M677.2 499L686.2 488L621.4 448Z" fill="#1e7b8d" stroke="#1e7b8d"></path><path d="M749.2 399L700.2 362L698.2 390Z" fill="#0c2838" stroke="#0c2838"></path><path d="M636.3 600L649.2 546L597.3 533Z" fill="#081c2a" stroke="#081c2a"></path><path d="M696.2 552L732.1 477L686.2 488Z" fill="#103546" stroke="#103546"></path><path d="M132.9 602L135.8 600L125.9 600Z" fill="#00101c" stroke="#00101c"></path><path d="M120.8 580L135.8 600L153.8 508Z" fill="#0c2838" stroke="#0c2838"></path><path d="M226.8 600L132.9 602L327.6 611Z" fill="#155063" stroke="#155063"></path><path d="M749.2 399L698.2 390L694.2 426Z" fill="#299aa6" stroke="#299aa6"></path><path d="M730.2 251L746.2 234L677.2 180Z" fill="#1a6d7f" stroke="#1a6d7f"></path><path d="M748.2 299L746.2 234L730.2 251Z" fill="#00101c" stroke="#00101c"></path><path d="M125.9 600L135.8 600L120.8 580Z" fill="#299aa6" stroke="#299aa6"></path><path d="M135.8 600L132.9 602L226.8 600Z" fill="#238b9a" stroke="#238b9a"></path><path d="M67.9 -12L106.8 0L138.9 0Z" fill="#00101c" stroke="#00101c"></path><path d="M138.9 0L106.8 0L181.8 119Z" fill="#155063" stroke="#155063"></path><path d="M54.9 130L0 139L72.9 153Z" fill="#103546" stroke="#103546"></path><path d="M63.9 600L125.9 600L120.8 580Z" fill="#0c2838" stroke="#0c2838"></path><path d="M0 100L0 139L54.9 130Z" fill="#1e7b8d" stroke="#1e7b8d"></path><path d="M0 385L0 443L70.9 397Z" fill="#299aa6" stroke="#299aa6"></path><path d="M65.9 523L63.9 600L120.8 580Z" fill="#103546" stroke="#103546"></path><path d="M67.9 -12L94.9 0L106.8 0Z" fill="#00101c" stroke="#00101c"></path><path d="M106.8 0L94.9 0L54.9 130Z" fill="#081c2a" stroke="#081c2a"></path><path d="M0 443L0 448L70.9 397Z" fill="#134255" stroke="#134255"></path><path d="M742.1 86L711.2 99L782.1 113Z" fill="#155063" stroke="#155063"></path><path d="M698.3 125L711.2 99L688.2 116Z" fill="#1a6d7f" stroke="#1a6d7f"></path><path d="M732.1 477L749.2 399L694.2 426Z" fill="#081c2a" stroke="#081c2a"></path><path d="M732.1 477L694.2 426L686.2 488Z" fill="#00101c" stroke="#00101c"></path><path d="M691.2 48L641.3 0L626.4 93Z" fill="#00101c" stroke="#00101c"></path><path d="M0 448L0 465L100.8 475Z" fill="#00101c" stroke="#00101c"></path><path d="M711.2 99L691.2 48L688.2 116Z" fill="#00101c" stroke="#00101c"></path><path d="M25.9 55L0 100L54.9 130Z" fill="#0c2838" stroke="#0c2838"></path><path d="M636.3 600L675.3 559L649.2 546Z" fill="#00101c" stroke="#00101c"></path><path d="M649.2 546L675.3 559L677.2 499Z" fill="#081c2a" stroke="#081c2a"></path><path d="M94.9 0L25.9 55L54.9 130Z" fill="#175e71" stroke="#175e71"></path><path d="M327.6 611L636.3 600L561.4 600Z" fill="#175e71" stroke="#175e71"></path><path d="M561.4 600L636.3 600L597.3 533Z" fill="#103546" stroke="#103546"></path><path d="M696.2 552L686.2 488L677.2 499Z" fill="#155063" stroke="#155063"></path><path d="M0 465L0 490L65.9 523Z" fill="#238b9a" stroke="#238b9a"></path><path d="M742.1 86L724.2 77L711.2 99Z" fill="#299aa6" stroke="#299aa6"></path><path d="M711.2 99L724.2 77L691.2 48Z" fill="#081c2a" stroke="#081c2a"></path><path d="M691.2 48L738.2 0L641.3 0Z" fill="#155063" stroke="#155063"></path><path d="M686.2 593L696.2 552L675.3 559Z" fill="#175e71" stroke="#175e71"></path><path d="M675.3 559L696.2 552L677.2 499Z" fill="#155063" stroke="#155063"></path><path d="M587.3 -4L67.9 -12L359.6 0Z" fill="#238b9a" stroke="#238b9a"></path><path d="M94.9 0L67.9 -12L25.9 55Z" fill="#299aa6" stroke="#299aa6"></path><path d="M797.2 294L788.2 294L803.1 318Z" fill="#134255" stroke="#134255"></path><path d="M803.1 318L788.2 294L748.2 299Z" fill="#1e7b8d" stroke="#1e7b8d"></path><path d="M748.2 299L788.2 294L746.2 234Z" fill="#155063" stroke="#155063"></path><path d="M782.1 113L711.2 99L698.3 125Z" fill="#299aa6" stroke="#299aa6"></path><path d="M0 0L0 63L25.9 55Z" fill="#103546" stroke="#103546"></path><path d="M25.9 55L0 63L0 100Z" fill="#103546" stroke="#103546"></path><path d="M782.1 113L698.3 125L746.2 234Z" fill="#299aa6" stroke="#299aa6"></path><path d="M724.2 77L743.2 40L691.2 48Z" fill="#1a6d7f" stroke="#1a6d7f"></path><path d="M14.9 558L63.9 600L65.9 523Z" fill="#238b9a" stroke="#238b9a"></path><path d="M125.9 600L63.9 600L132.9 602Z" fill="#175e71" stroke="#175e71"></path><path d="M132.9 602L0 600L327.6 611Z" fill="#0c2838" stroke="#0c2838"></path><path d="M803.1 318L748.2 299L749.2 399Z" fill="#299aa6" stroke="#299aa6"></path><path d="M788.2 294L827.1 272L746.2 234Z" fill="#081c2a" stroke="#081c2a"></path><path d="M0.9 540L14.9 558L65.9 523Z" fill="#00101c" stroke="#00101c"></path><path d="M824.1 378L803.1 318L749.2 399Z" fill="#103546" stroke="#103546"></path><path d="M0 490L0.9 540L65.9 523Z" fill="#134255" stroke="#134255"></path><path d="M831.1 512L812.1 405L732.1 477Z" fill="#299aa6" stroke="#299aa6"></path><path d="M732.1 477L812.1 405L749.2 399Z" fill="#00101c" stroke="#00101c"></path><path d="M636.3 600L686.2 593L675.3 559Z" fill="#081c2a" stroke="#081c2a"></path><path d="M820.1 140L782.1 113L746.2 234Z" fill="#081c2a" stroke="#081c2a"></path><path d="M742.1 86L743.2 40L724.2 77Z" fill="#1e7b8d" stroke="#1e7b8d"></path><path d="M827.1 272L788.2 294L797.2 294Z" fill="#0c2838" stroke="#0c2838"></path><path d="M828.1 42L743.2 40L742.1 86Z" fill="#175e71" stroke="#175e71"></path><path d="M831.1 512L732.1 477L824.1 536Z" fill="#175e71" stroke="#175e71"></path><path d="M803.1 318L827.1 272L797.2 294Z" fill="#081c2a" stroke="#081c2a"></path><path d="M876.1 292L827.1 272L803.1 318Z" fill="#134255" stroke="#134255"></path><path d="M67.9 -12L0 0L25.9 55Z" fill="#155063" stroke="#155063"></path><path d="M636.3 600L715.2 600L686.2 593Z" fill="#1a6d7f" stroke="#1a6d7f"></path><path d="M686.2 593L715.2 600L696.2 552Z" fill="#1a6d7f" stroke="#1a6d7f"></path><path d="M835.1 607L715.2 600L636.3 600Z" fill="#299aa6" stroke="#299aa6"></path><path d="M812.1 405L824.1 378L749.2 399Z" fill="#155063" stroke="#155063"></path><path d="M756.2 0L738.2 0L743.2 40Z" fill="#155063" stroke="#155063"></path><path d="M743.2 40L738.2 0L691.2 48Z" fill="#238b9a" stroke="#238b9a"></path><path d="M641.3 0L738.2 0L587.3 -4Z" fill="#1e7b8d" stroke="#1e7b8d"></path><path d="M0 490L0 600L0.9 540Z" fill="#134255" stroke="#134255"></path><path d="M0.9 540L0 600L14.9 558Z" fill="#103546" stroke="#103546"></path><path d="M14.9 558L0 600L63.9 600Z" fill="#238b9a" stroke="#238b9a"></path><path d="M63.9 600L0 600L132.9 602Z" fill="#103546" stroke="#103546"></path><path d="M853.1 226L820.1 140L746.2 234Z" fill="#238b9a" stroke="#238b9a"></path><path d="M786.1 0L756.2 0L743.2 40Z" fill="#103546" stroke="#103546"></path><path d="M828.1 42L742.1 86L782.1 113Z" fill="#1a6d7f" stroke="#1a6d7f"></path><path d="M738.2 0L756.2 0L587.3 -4Z" fill="#299aa6" stroke="#299aa6"></path><path d="M851.1 350L900 427L900 356Z" fill="#155063" stroke="#155063"></path><path d="M900 341L851.1 350L900 356Z" fill="#1a6d7f" stroke="#1a6d7f"></path><path d="M824.1 378L851.1 350L803.1 318Z" fill="#1e7b8d" stroke="#1e7b8d"></path><path d="M827.1 272L853.1 226L746.2 234Z" fill="#00101c" stroke="#00101c"></path><path d="M876.1 292L853.1 226L827.1 272Z" fill="#238b9a" stroke="#238b9a"></path><path d="M820.1 140L830.1 87L782.1 113Z" fill="#155063" stroke="#155063"></path><path d="M900 111L830.1 87L820.1 140Z" fill="#299aa6" stroke="#299aa6"></path><path d="M878.1 297L876.1 292L803.1 318Z" fill="#155063" stroke="#155063"></path><path d="M853.1 226L900 149L820.1 140Z" fill="#134255" stroke="#134255"></path><path d="M786.1 0L786.1 0L828.1 42Z" fill="#081c2a" stroke="#081c2a"></path><path d="M756.2 0L786.1 0L587.3 -4Z" fill="#134255" stroke="#134255"></path><path d="M828.1 42L786.1 0L743.2 40Z" fill="#103546" stroke="#103546"></path><path d="M786.1 0L786.1 0L587.3 -4Z" fill="#238b9a" stroke="#238b9a"></path><path d="M851.1 350L878.1 297L803.1 318Z" fill="#134255" stroke="#134255"></path><path d="M876.1 292L899.1 255L853.1 226Z" fill="#081c2a" stroke="#081c2a"></path><path d="M824.1 536L732.1 477L696.2 552Z" fill="#103546" stroke="#103546"></path><path d="M851.1 350L900 341L878.1 297Z" fill="#103546" stroke="#103546"></path><path d="M788.2 600L824.1 536L696.2 552Z" fill="#103546" stroke="#103546"></path><path d="M835.1 607L788.2 600L715.2 600Z" fill="#081c2a" stroke="#081c2a"></path><path d="M715.2 600L788.2 600L696.2 552Z" fill="#155063" stroke="#155063"></path><path d="M844.1 18L828.1 42L900 62Z" fill="#1e7b8d" stroke="#1e7b8d"></path><path d="M830.1 87L828.1 42L782.1 113Z" fill="#299aa6" stroke="#299aa6"></path><path d="M854.1 536L831.1 512L824.1 536Z" fill="#155063" stroke="#155063"></path><path d="M854.1 536L851.1 509L831.1 512Z" fill="#081c2a" stroke="#081c2a"></path><path d="M831.1 512L851.1 509L812.1 405Z" fill="#103546" stroke="#103546"></path><path d="M835.1 607L799.1 600L788.2 600Z" fill="#1a6d7f" stroke="#1a6d7f"></path><path d="M788.2 600L799.1 600L824.1 536Z" fill="#1e7b8d" stroke="#1e7b8d"></path><path d="M900 255L876.1 292L878.1 297Z" fill="#155063" stroke="#155063"></path><path d="M900 255L899.1 255L876.1 292Z" fill="#238b9a" stroke="#238b9a"></path><path d="M900 341L900 255L878.1 297Z" fill="#175e71" stroke="#175e71"></path><path d="M899.1 255L900 208L853.1 226Z" fill="#081c2a" stroke="#081c2a"></path><path d="M851.1 350L824.1 378L900 427Z" fill="#299aa6" stroke="#299aa6"></path><path d="M900 427L824.1 378L812.1 405Z" fill="#299aa6" stroke="#299aa6"></path><path d="M900 255L900 208L899.1 255Z" fill="#081c2a" stroke="#081c2a"></path><path d="M840.1 600L854.1 536L824.1 536Z" fill="#00101c" stroke="#00101c"></path><path d="M900 450L900 427L812.1 405Z" fill="#299aa6" stroke="#299aa6"></path><path d="M900 62L828.1 42L830.1 87Z" fill="#155063" stroke="#155063"></path><path d="M828.1 42L844.1 18L786.1 0Z" fill="#1a6d7f" stroke="#1a6d7f"></path><path d="M900 450L812.1 405L851.1 509Z" fill="#155063" stroke="#155063"></path><path d="M900 208L900 149L853.1 226Z" fill="#103546" stroke="#103546"></path><path d="M900 464L900 450L851.1 509Z" fill="#134255" stroke="#134255"></path><path d="M854.1 536L900 464L851.1 509Z" fill="#175e71" stroke="#175e71"></path><path d="M900 149L900 111L820.1 140Z" fill="#155063" stroke="#155063"></path><path d="M799.1 600L840.1 600L824.1 536Z" fill="#1e7b8d" stroke="#1e7b8d"></path><path d="M854.1 536L900 600L900 464Z" fill="#1e7b8d" stroke="#1e7b8d"></path><path d="M327.6 611L835.1 607L636.3 600Z" fill="#299aa6" stroke="#299aa6"></path><path d="M835.1 607L840.1 600L799.1 600Z" fill="#103546" stroke="#103546"></path><path d="M900 149L905.1 97L900 111Z" fill="#1a6d7f" stroke="#1a6d7f"></path><path d="M900 111L905.1 97L830.1 87Z" fill="#238b9a" stroke="#238b9a"></path><path d="M900 208L905.1 97L900 149Z" fill="#1a6d7f" stroke="#1a6d7f"></path><path d="M900 255L905.1 97L900 208Z" fill="#0c2838" stroke="#0c2838"></path><path d="M900 341L905.1 97L900 255Z" fill="#103546" stroke="#103546"></path><path d="M900 356L905.1 97L900 341Z" fill="#299aa6" stroke="#299aa6"></path><path d="M900 427L905.1 97L900 356Z" fill="#00101c" stroke="#00101c"></path><path d="M900 450L905.1 97L900 427Z" fill="#155063" stroke="#155063"></path><path d="M900 464L905.1 97L900 450Z" fill="#0c2838" stroke="#0c2838"></path><path d="M905.1 97L900 62L830.1 87Z" fill="#155063" stroke="#155063"></path><path d="M905.1 97L900 0L900 62Z" fill="#0c2838" stroke="#0c2838"></path><path d="M900 62L900 0L844.1 18Z" fill="#00101c" stroke="#00101c"></path><path d="M844.1 18L900 0L786.1 0Z" fill="#081c2a" stroke="#081c2a"></path><path d="M786.1 0L900 0L587.3 -4Z" fill="#175e71" stroke="#175e71"></path><path d="M587.3 -4L900 0L67.9 -12Z" fill="#1a6d7f" stroke="#1a6d7f"></path><path d="M900 609L900 600L840.1 600Z" fill="#238b9a" stroke="#238b9a"></path><path d="M840.1 600L900 600L854.1 536Z" fill="#175e71" stroke="#175e71"></path><path d="M900 464L900 600L905.1 97Z" fill="#103546" stroke="#103546"></path><path d="M327.6 611L900 609L835.1 607Z" fill="#103546" stroke="#103546"></path><path d="M835.1 607L900 609L840.1 600Z" fill="#00101c" stroke="#00101c"></path><path d="M900 600L900 609L905.1 97Z" fill="#00101c" stroke="#00101c"></path></g></svg>